<svg width="1859" height="1222" viewBox="0 0 1859 1222" fill="none" xmlns="http://www.w3.org/2000/svg">
<path d="M39.5582 681.992C494.507 657.724 481.49 658.154 680.569 697.108C1376.11 833.158 1534.51 1218.75 1785.27 1081.03M40.1713 673.332C405.156 656.669 467.372 652.858 582.037 670.561C610.46 675.017 641.754 681.131 681.252 688.924C834.177 719.073 960.184 763.657 1068.74 810.374C1446.63 972.102 1590.89 1175.89 1785.77 1073.16M40.7854 664.66C406.483 650.766 466.733 646.482 582.649 662.831C611.297 666.87 642.608 672.92 681.923 680.739C834.113 710.996 958.657 757.901 1067.9 805.266C1442.77 966.203 1591.93 1163.47 1786.41 1065.29M41.3985 656.001C407.798 644.85 465.979 640.256 583.248 655.1C612.119 658.748 643.462 664.708 682.605 672.569C834.049 702.906 957.017 752.453 1066.93 800.151C1438.38 961.275 1592.89 1151.04 1786.94 1057.42M42.0126 647.328C409.112 638.959 465.278 634.007 583.861 647.369C612.953 650.64 644.251 656.493 683.288 664.385C833.986 694.816 955.452 746.852 1066.01 795.038C1434.27 955.738 1593.86 1138.61 1787.5 1049.55M42.6257 638.669C410.4 633.053 464.566 627.744 584.461 639.625C613.774 642.518 645.169 648.299 683.972 656.201C833.926 686.674 953.895 741.147 1065.09 789.926C1430.24 950.128 1594.84 1126.18 1788.05 1041.67M43.2398 629.996C411.753 627.152 463.834 621.572 585.07 631.946C614.592 634.461 646.033 640.14 684.652 648.07C833.855 678.688 952.331 735.546 1064.16 784.878C1426.17 944.581 1595.82 1113.81 1788.6 1033.92M43.8529 621.337C413.066 621.261 463.247 613.734 585.674 624.137C615.365 626.663 646.892 631.851 685.339 639.821C833.809 670.533 950.777 729.802 1063.23 779.674C1422.07 938.849 1596.8 1101.28 1789.17 1025.9M44.467 612.665C414.392 615.372 462.389 609.149 586.285 616.432C616.237 618.191 647.745 623.665 686.008 631.663C833.718 662.467 949.215 724.163 1062.3 774.587C1418.08 933.228 1597.79 1088.84 1789.73 1018.05M45.0801 604.005C415.707 609.455 461.659 602.951 586.897 608.702C617.058 610.082 648.597 615.48 686.691 623.479C833.658 654.325 947.655 718.497 1061.38 769.474C1414.04 927.565 1598.75 1076.45 1790.28 1010.18M45.6942 595.333C417.017 603.603 460.93 596.752 587.497 600.957C617.879 601.973 649.453 607.243 687.375 615.295C833.591 646.287 946.096 712.831 1060.44 764.361C1410 921.876 1599.74 1064.02 1790.84 1002.3M46.3073 586.673C418.335 597.647 460.16 590.564 588.11 593.227C618.7 593.864 650.32 599.032 688.057 607.125C833.524 638.236 944.545 707.218 1059.52 759.248C1405.98 916.188 1600.72 1051.59 1791.4 994.4M46.9214 578.001C419.662 591.744 459.442 584.379 588.709 585.496C619.52 585.768 651.174 590.821 688.741 598.941C833.463 630.12 942.989 701.5 1058.59 754.162C1401.95 910.513 1601.69 1039.19 1791.95 986.587M47.5345 569.341C420.976 585.841 458.724 578.194 589.321 577.765C620.341 577.659 652.028 582.609 689.411 590.757C833.399 622.03 941.43 695.821 1057.67 749.049C1397.93 904.785 1602.67 1026.76 1792.51 978.709M48.1486 560.669C422.289 579.95 457.993 572.022 589.922 570.021C621.126 569.509 652.882 574.398 690.093 582.586C833.323 613.939 939.884 690.143 1056.74 743.909C1393.92 899.033 1603.65 1014.29 1793.07 970.818M48.7617 552.01C423.604 574.046 457.248 565.848 590.534 562.29C621.969 561.453 653.735 566.2 690.777 574.402C833.272 605.85 938.325 684.464 1055.81 738.797C1389.9 893.28 1604.7 1001.87 1793.63 962.94M49.3758 543.337C424.931 568.143 456.516 559.676 591.133 554.559C622.789 553.357 654.59 557.988 691.46 566.219C833.208 597.773 936.728 678.783 1054.91 733.686C1385.93 887.53 1605.62 989.432 1794.21 955.077M49.9889 534.678C426.245 562.239 455.771 553.515 591.746 546.828C623.609 545.262 655.454 549.817 692.143 558.035C833.144 589.683 935.22 673.108 1053.96 728.571C1381.9 881.749 1606.59 977.003 1794.74 947.197M50.603 526.006C427.52 556.333 455.038 547.356 592.371 539.099C624.455 537.167 656.337 541.568 692.908 549.805C833.165 581.507 933.745 667.356 1053.11 723.398C1377.99 875.912 1607.65 964.514 1795.38 939.259M51.217 517.333C428.886 550.433 454.291 541.208 592.958 531.353C625.249 529.07 657.165 533.355 693.522 541.682C833.017 573.503 932.117 661.725 1052.1 718.397C1373.91 870.181 1608.54 952.184 1795.86 931.453M51.8302 508.674C430.2 544.529 453.558 535.062 593.609 523.626C626.12 520.977 658.071 525.147 694.205 533.498C832.98 565.414 930.598 656.036 1051.2 713.273C1369.96 864.419 1609.55 939.757 1796.44 923.616M52.4442 500.001C431.512 538.651 452.811 528.914 594.157 515.891C626.838 512.861 658.86 516.931 694.851 525.299C832.839 557.306 929.003 650.315 1050.23 708.092C1365.93 858.535 1610.5 927.26 1796.96 915.683M53.0537 491.394C432.836 532.788 452.112 522.835 594.766 508.212C627.692 504.833 659.737 508.774 695.542 517.194C832.815 549.218 927.47 644.638 1049.32 702.993C1361.97 852.733 1611.48 914.845 1797.53 907.845M53.6715 482.669C434.154 526.832 451.342 516.647 595.382 500.43C628.515 496.698 660.594 500.51 696.229 508.958C832.749 541.154 925.977 638.95 1048.4 697.881C1358 846.892 1612.47 902.416 1798.09 899.954M54.2846 474.01C435.468 520.928 450.595 510.513 595.995 492.686C629.335 488.602 661.448 492.312 696.897 500.8C832.684 533.09 924.379 633.269 1047.47 692.794C1354.03 841.063 1613.43 890.012 1798.64 892.115M54.8977 465.351C436.781 515.037 449.859 504.392 596.593 484.968C630.154 480.519 662.297 484.166 697.581 492.616C832.621 524.987 922.836 627.552 1046.54 687.667C1350.07 835.196 1614.42 877.571 1799.2 884.224M55.5118 456.678C438.109 509.121 449.125 498.259 597.207 477.224C630.974 472.423 663.156 475.889 698.265 484.42C832.558 516.897 921.294 621.822 1045.61 682.542C1346.11 829.316 1615.39 865.128 1799.76 876.333M56.1258 448.006C439.423 503.23 448.377 492.137 597.806 469.493C631.793 464.341 664.01 467.678 698.948 476.236C832.495 508.794 919.75 616.118 1044.69 677.494C1342.13 823.5 1616.37 852.765 1800.31 868.533M56.7418 439.307C440.739 497.288 447.643 485.991 598.422 461.71C632.58 456.164 664.88 459.428 699.633 468.026C832.382 500.674 918.209 610.362 1043.77 672.277C1338.22 817.506 1617.36 840.258 1800.88 860.59M57.353 430.674C442.064 491.424 446.904 479.922 599.019 454.018C633.432 448.162 665.731 451.256 700.314 459.882C832.367 492.627 916.677 604.672 1042.83 667.203C1334.27 811.652 1618.33 827.841 1801.43 852.725M57.9662 422.015C443.378 485.52 446.181 473.816 599.631 446.288C634.251 440.079 666.585 443.045 700.984 451.697C832.303 484.55 915.134 598.954 1041.92 662.091C1330.33 805.735 1619.35 815.402 1802 844.847M58.5802 413.342C444.64 479.613 445.483 467.711 600.23 438.556C635.018 431.992 667.44 434.833 701.73 443.557C832.301 476.503 913.667 593.269 1041.04 657.021C1326.45 799.86 1620.3 803.01 1802.61 837.012M59.1934 404.683C446.006 473.712 444.759 461.617 600.842 430.826C635.889 423.913 668.294 426.622 702.35 435.343C832.176 468.37 912.075 587.496 1040.05 651.864C1322.46 793.899 1621.27 790.502 1803.1 829.103M59.8075 396.01C447.333 467.81 443.971 455.506 601.443 423.081C636.708 415.83 669.16 418.424 703.034 427.159C832.112 460.279 910.533 581.766 1039.12 646.751C1318.53 787.956 1622.25 778.112 1803.66 821.225M60.4206 387.351C448.631 461.944 443.246 449.413 602.055 415.351C637.527 407.747 670.014 410.213 703.717 418.976C832.049 452.189 909.005 576.024 1038.2 641.639C1314.62 781.961 1623.23 765.683 1804.22 813.36M61.0346 378.679C449.96 456.015 442.521 443.332 602.654 407.619C638.346 399.664 670.868 402.002 704.399 410.805C831.971 444.111 907.476 570.282 1037.27 636.526C1310.68 776.057 1624.21 753.306 1804.78 805.482M61.6487 370.006C451.287 450.112 441.784 437.238 603.267 399.889C639.165 391.581 671.722 393.79 705.07 402.621C831.907 436.034 905.961 564.54 1036.34 631.413C1306.77 770.101 1625.18 740.825 1805.33 797.604M62.2619 361.347C452.601 444.208 441.055 431.209 603.879 392.158C639.997 383.499 672.576 385.579 705.753 394.437C831.844 427.931 904.497 558.802 1035.41 626.3C1302.87 764.134 1626.16 728.396 1805.89 789.739M62.8759 352.674C453.916 438.305 440.333 425.077 604.479 384.414C640.817 375.416 673.43 377.367 706.436 386.253C831.781 419.841 902.905 553.043 1034.49 621.187C1298.95 758.152 1627.15 715.954 1806.45 781.848M63.489 344.015C455.243 432.402 439.608 418.996 605.092 376.684C641.633 367.373 674.297 369.157 707.119 378.083C831.716 411.764 901.389 547.301 1033.57 616.075C1295.05 752.171 1628.12 703.525 1807.01 773.983M64.1031 335.343C456.557 426.498 438.88 412.955 605.691 368.952C642.454 359.264 675.087 360.941 707.802 369.899C831.653 403.674 899.877 541.521 1032.63 610.961C1291.17 746.152 1629.1 691.096 1807.56 766.118M64.7162 326.683C457.911 420.571 438.17 406.836 606.264 361.232C643.233 351.191 675.966 352.745 708.433 361.725C831.59 395.584 898.363 535.754 1031.71 605.809C1287.27 740.133 1630.08 678.627 1808.12 758.201M65.3303 318.011C459.184 414.704 437.444 400.768 606.955 353.481C644.157 343.102 676.911 344.54 709.207 353.547C831.526 387.494 896.901 529.99 1030.85 600.74C1283.44 734.222 1631.12 666.242 1808.74 750.379M65.9434 309.351C460.511 408.801 436.731 394.702 607.503 345.746C644.91 335.028 677.7 336.324 709.826 345.359C831.463 379.404 895.337 524.206 1029.91 595.627C1279.56 728.151 1632.11 653.813 1809.3 742.501M66.5575 300.679C461.825 402.897 436.018 388.635 608.115 338.015C645.742 326.946 678.58 328.114 710.522 337.177C831.399 371.314 893.785 518.423 1028.94 590.497C1275.62 722.129 1633.03 641.38 1809.81 734.619M67.1707 292.02C463.139 396.993 435.291 382.567 608.728 330.285C646.573 318.877 679.434 319.903 711.205 328.993C831.333 363.263 892.34 512.608 1028 585.384C1271.74 716.097 1633.98 628.95 1810.35 726.753M67.7847 283.347C464.466 391.09 434.578 376.501 609.332 322.489C647.401 310.664 680.297 311.574 711.892 320.757C831.276 355.081 890.839 506.841 1027.08 580.206C1267.87 709.988 1634.97 616.443 1810.91 718.81M68.3978 274.688C465.752 385.224 433.864 370.447 609.94 314.81C648.223 302.725 681.143 303.48 712.563 312.573C831.208 347.056 889.34 501.049 1026.17 575.159C1264.02 704.023 1635.98 604.081 1811.49 711.012M69.0119 266.015C467.093 379.296 433.164 364.381 610.54 307.079C649.081 294.645 681.997 295.269 713.241 304.454C831.209 338.971 887.842 495.243 1025.23 570.046C1260.14 697.965 1636.94 591.677 1812.04 703.133M69.625 257.356C468.407 373.392 432.45 358.328 611.152 299.348C649.873 286.573 682.864 287.058 713.962 296.286C831.067 330.888 886.357 489.438 1024.29 564.933C1256.27 691.908 1637.91 579.221 1812.58 695.293M70.2391 248.684C469.735 367.489 431.722 352.273 611.751 291.617C650.689 278.542 683.718 278.847 714.595 288.086C831.058 322.75 884.873 483.621 1023.36 559.819C1252.4 685.851 1638.88 566.792 1813.13 687.388M70.8486 240.076C471.045 361.637 431.03 346.273 612.361 283.925C651.52 270.473 684.568 270.687 715.235 279.965C830.949 314.761 883.334 477.852 1022.38 554.755C1248.5 679.831 1639.81 554.411 1813.64 679.559M71.4663 231.352C472.363 355.682 430.33 340.208 612.977 276.143C652.342 262.351 685.374 262.433 715.961 271.732C830.902 306.62 881.906 471.972 1021.48 549.592C1244.69 673.7 1640.82 541.932 1814.23 671.631M72.0794 222.692C473.69 349.779 429.619 334.115 613.579 268.372C653.176 254.23 686.282 254.186 716.644 263.548C830.813 298.528 880.436 466.142 1020.55 544.478C1240.83 667.617 1641.78 529.502 1814.77 663.765M72.6926 214.033C475.002 343.901 428.916 328.075 614.188 260.694C653.991 246.212 687.135 245.988 717.326 255.39C830.748 290.451 878.966 460.299 1019.61 539.365C1236.99 661.536 1642.76 517.06 1815.33 655.835M73.3076 205.347C476.317 337.984 428.215 322.022 614.788 252.95C654.797 238.129 688.001 237.804 718.01 247.194C830.685 282.361 877.498 454.443 1018.67 534.277C1233.13 655.467 1643.73 504.657 1815.87 648.047M73.9207 196.688C477.644 332.081 427.514 315.97 615.401 245.206C655.655 230.048 688.855 229.592 718.693 239.01C830.592 274.308 876.03 448.588 1017.8 529.142C1229.36 649.39 1644.76 492.205 1816.48 640.146M74.5366 187.99C479.025 326.156 426.828 309.879 616.002 237.449C656.471 222.005 689.709 221.381 719.389 230.84C830.571 266.181 874.582 442.799 1016.89 524.03C1225.55 643.245 1645.75 479.777 1817.05 632.269M75.1479 179.356C480.272 320.274 426.123 303.878 616.61 229.783C657.301 213.949 690.509 213.205 720.043 222.694C830.442 258.087 873.137 436.8 1015.94 518.916C1221.72 637.138 1646.71 467.346 1817.6 624.403M75.762 170.684C481.586 314.37 425.421 297.838 617.215 221.974C658.139 205.788 691.42 204.919 720.732 214.432C830.432 249.974 871.631 430.929 1015.02 513.764C1217.89 630.979 1647.74 454.881 1818.11 616.482M76.3751 162.024C482.872 308.503 424.874 292.175 617.827 214.243C658.99 197.799 692.287 196.709 721.415 206.262C830.369 241.884 870.242 425.052 1014.1 508.613C1214.08 624.835 1648.63 442.407 1818.68 608.579M76.9892 153.352C484.226 302.576 424.164 286.069 618.425 206.538C659.81 189.703 693.137 188.549 722.095 198.117C830.303 233.833 868.773 419.196 1013.17 503.578C1210.2 618.777 1649.65 430.059 1819.25 600.78M77.6023 144.693C485.541 296.672 423.441 279.95 619.063 198.809C660.665 181.662 694.019 180.314 722.804 189.935C830.239 225.743 867.373 413.292 1012.23 498.517C1206.46 612.715 1650.63 417.67 1819.8 592.954M78.2164 136.02C486.868 290.77 422.719 273.83 619.611 191.074C661.458 173.577 694.846 172.127 723.449 181.749C830.162 217.665 865.909 407.371 1011.31 493.352C1202.67 606.532 1651.61 405.188 1820.37 585.038M78.8295 127.361C488.182 284.866 421.985 267.684 620.249 183.346C662.277 165.495 695.648 163.912 724.131 173.578C830.098 209.575 864.653 401.268 1010.39 488.239C1199 600.149 1652.59 392.759 1820.94 577.161M79.4436 118.688C489.496 278.962 421.26 261.603 620.849 175.601C820.438 89.5991 823.82 371.98 1009.45 483.113C1195.08 594.245 1653.58 380.331 1821.5 569.282" stroke="url(#paint0_radial)" stroke-miterlimit="10"/>
<defs>
<radialGradient id="paint0_radial" cx="0" cy="0" r="1" gradientUnits="userSpaceOnUse" gradientTransform="translate(2055.31 -921.089) rotate(100.771) scale(2082.31 4169.59)">
<stop stop-color="#D2D1EC"/>
<stop offset="1" stop-color="#080319" stop-opacity="0.67"/>
</radialGradient>
</defs>
</svg>
